<svg width="30" height="28" viewBox="0 0 30 28" fill="none" xmlns="http://www.w3.org/2000/svg">
<mask id="path-1-inside-1_3777_6346" fill="white">
<path fill-rule="evenodd" clip-rule="evenodd" d="M21.4923 9.41203C20.985 9.97697 20.353 10.4277 19.6396 10.7208C20.3994 11.2329 21.3148 11.5318 22.2999 11.5318C24.9321 11.5318 27.0658 9.39803 27.0658 6.7659C27.0658 4.13376 24.9321 2 22.2999 2C21.8612 2 21.4362 2.05929 21.0327 2.17031C21.6082 2.66809 22.0709 3.29286 22.3771 4.00105C23.869 4.04191 25.0658 5.26413 25.0658 6.7659C25.0658 8.29346 23.8275 9.53179 22.2999 9.53179C22.019 9.53179 21.7478 9.4899 21.4923 9.41203Z"/>
</mask>
<path fill-rule="evenodd" clip-rule="evenodd" d="M21.4923 9.41203C20.985 9.97697 20.353 10.4277 19.6396 10.7208C20.3994 11.2329 21.3148 11.5318 22.2999 11.5318C24.9321 11.5318 27.0658 9.39803 27.0658 6.7659C27.0658 4.13376 24.9321 2 22.2999 2C21.8612 2 21.4362 2.05929 21.0327 2.17031C21.6082 2.66809 22.0709 3.29286 22.3771 4.00105C23.869 4.04191 25.0658 5.26413 25.0658 6.7659C25.0658 8.29346 23.8275 9.53179 22.2999 9.53179C22.019 9.53179 21.7478 9.4899 21.4923 9.41203Z" fill="#4C506A"/>
<path d="M21.4923 9.41203L22.0755 7.49893L20.856 7.12721L20.0042 8.07577L21.4923 9.41203ZM19.6396 10.7208L18.8795 8.8709L15.4235 10.291L18.5219 12.3793L19.6396 10.7208ZM21.0327 2.17031L20.5022 0.241956L16.8938 1.2347L19.7244 3.68297L21.0327 2.17031ZM22.3771 4.00105L20.5413 4.79476L21.0474 5.9654L22.3223 6.00031L22.3771 4.00105ZM20.0042 8.07577C19.6948 8.42035 19.3105 8.69379 18.8795 8.8709L20.3998 12.5707C21.3956 12.1615 22.2752 11.5336 22.9804 10.7483L20.0042 8.07577ZM18.5219 12.3793C19.6016 13.107 20.9042 13.5318 22.2999 13.5318V9.53179C21.7254 9.53179 21.1973 9.35879 20.7574 9.06232L18.5219 12.3793ZM22.2999 13.5318C26.0366 13.5318 29.0658 10.5026 29.0658 6.7659H25.0658C25.0658 8.29346 23.8275 9.53179 22.2999 9.53179V13.5318ZM29.0658 6.7659C29.0658 3.0292 26.0366 0 22.2999 0V4C23.8275 4 25.0658 5.23833 25.0658 6.7659H29.0658ZM22.2999 0C21.6802 0 21.0769 0.0838391 20.5022 0.241956L21.5633 4.09866C21.7956 4.03475 22.0421 4 22.2999 4V0ZM19.7244 3.68297C20.0754 3.98656 20.3562 4.36664 20.5413 4.79476L24.2128 3.20735C23.7855 2.21908 23.1411 1.34962 22.3411 0.657642L19.7244 3.68297ZM27.0658 6.7659C27.0658 4.1779 25.0036 2.07222 22.4318 2.0018L22.3223 6.00031C22.7344 6.01159 23.0658 6.35037 23.0658 6.7659H27.0658ZM22.2999 11.5318C24.9321 11.5318 27.0658 9.39803 27.0658 6.7659H23.0658C23.0658 7.18889 22.7229 7.53179 22.2999 7.53179V11.5318ZM20.9092 11.3251C21.3516 11.46 21.8192 11.5318 22.2999 11.5318V7.53179C22.2188 7.53179 22.144 7.51983 22.0755 7.49893L20.9092 11.3251Z" fill="currentColor" mask="url(#path-1-inside-1_3777_6346)"/>
<mask id="path-3-inside-2_3777_6346" fill="white">
<path fill-rule="evenodd" clip-rule="evenodd" d="M7.62193 9.41203C8.12923 9.97697 8.76123 10.4277 9.47461 10.7208C8.71483 11.2329 7.79948 11.5318 6.81432 11.5318C4.18219 11.5318 2.04843 9.39803 2.04843 6.7659C2.04843 4.13376 4.18219 2 6.81432 2C7.25309 2 7.67802 2.05929 8.08152 2.17031C7.50601 2.66809 7.04338 3.29286 6.73719 4.00105C5.24529 4.04191 4.04843 5.26413 4.04843 6.7659C4.04843 8.29346 5.28676 9.53179 6.81432 9.53179C7.09528 9.53179 7.36645 9.4899 7.62193 9.41203Z"/>
</mask>
<path fill-rule="evenodd" clip-rule="evenodd" d="M7.62193 9.41203C8.12923 9.97697 8.76123 10.4277 9.47461 10.7208C8.71483 11.2329 7.79948 11.5318 6.81432 11.5318C4.18219 11.5318 2.04843 9.39803 2.04843 6.7659C2.04843 4.13376 4.18219 2 6.81432 2C7.25309 2 7.67802 2.05929 8.08152 2.17031C7.50601 2.66809 7.04338 3.29286 6.73719 4.00105C5.24529 4.04191 4.04843 5.26413 4.04843 6.7659C4.04843 8.29346 5.28676 9.53179 6.81432 9.53179C7.09528 9.53179 7.36645 9.4899 7.62193 9.41203Z" fill="#4C506A"/>
<path d="M7.62193 9.41203L7.03879 7.49893L8.25825 7.12721L9.11002 8.07577L7.62193 9.41203ZM9.47461 10.7208L10.2348 8.8709L13.6908 10.291L10.5924 12.3793L9.47461 10.7208ZM8.08152 2.17031L8.61205 0.241956L12.2204 1.2347L9.38989 3.68297L8.08152 2.17031ZM6.73719 4.00105L8.57295 4.79476L8.06682 5.9654L6.79193 6.00031L6.73719 4.00105ZM9.11002 8.07577C9.41945 8.42035 9.80377 8.69379 10.2348 8.8709L8.71445 12.5707C7.71869 12.1615 6.83902 11.5336 6.13384 10.7483L9.11002 8.07577ZM10.5924 12.3793C9.51271 13.107 8.2101 13.5318 6.81432 13.5318V9.53179C7.38887 9.53179 7.91695 9.35879 8.35683 9.06232L10.5924 12.3793ZM6.81432 13.5318C3.07762 13.5318 0.0484257 10.5026 0.0484257 6.7659H4.04843C4.04843 8.29346 5.28676 9.53179 6.81432 9.53179V13.5318ZM0.0484257 6.7659C0.0484257 3.0292 3.07762 0 6.81432 0V4C5.28676 4 4.04843 5.23833 4.04843 6.7659H0.0484257ZM6.81432 0C7.43403 0 8.03734 0.0838391 8.61205 0.241956L7.55098 4.09866C7.3187 4.03475 7.07216 4 6.81432 4V0ZM9.38989 3.68297C9.03891 3.98656 8.75805 4.36664 8.57295 4.79476L4.90142 3.20735C5.32871 2.21908 5.97312 1.34962 6.77314 0.657642L9.38989 3.68297ZM2.04843 6.7659C2.04843 4.1779 4.11069 2.07222 6.68244 2.0018L6.79193 6.00031C6.37989 6.01159 6.04843 6.35037 6.04843 6.7659H2.04843ZM6.81432 11.5318C4.18219 11.5318 2.04843 9.39803 2.04843 6.7659H6.04843C6.04843 7.18889 6.39133 7.53179 6.81432 7.53179V11.5318ZM8.20508 11.3251C7.76268 11.46 7.29507 11.5318 6.81432 11.5318V7.53179C6.89549 7.53179 6.97022 7.51983 7.03879 7.49893L8.20508 11.3251Z" fill="currentColor" mask="url(#path-3-inside-2_3777_6346)"/>
<mask id="path-5-inside-3_3777_6346" fill="white">
<path fill-rule="evenodd" clip-rule="evenodd" d="M17.0029 17.9993C17.0102 17.9994 17.0175 17.9995 17.0248 17.9995H22.3013H27.5779C28.4239 17.9995 29.1098 17.3136 29.1098 16.4676C29.1098 14.3055 27.357 12.5527 25.1949 12.5527H22.4994C23.3985 12.9557 24.1291 13.6673 24.5564 14.5527H25.1949C26.091 14.5527 26.8433 15.1682 27.0521 15.9995H24.9534C24.9639 16.12 24.9692 16.242 24.9692 16.3653C24.9692 17.2677 24.2376 17.9993 23.3352 17.9993H17.7069H17.0029Z"/>
</mask>
<path fill-rule="evenodd" clip-rule="evenodd" d="M17.0029 17.9993C17.0102 17.9994 17.0175 17.9995 17.0248 17.9995H22.3013H27.5779C28.4239 17.9995 29.1098 17.3136 29.1098 16.4676C29.1098 14.3055 27.357 12.5527 25.1949 12.5527H22.4994C23.3985 12.9557 24.1291 13.6673 24.5564 14.5527H25.1949C26.091 14.5527 26.8433 15.1682 27.0521 15.9995H24.9534C24.9639 16.12 24.9692 16.242 24.9692 16.3653C24.9692 17.2677 24.2376 17.9993 23.3352 17.9993H17.7069H17.0029Z" fill="#4C506A"/>
<path d="M17.0029 17.9993V15.9993L16.9749 19.9991L17.0029 17.9993ZM22.4994 12.5527V10.5527L21.6815 14.3778L22.4994 12.5527ZM24.5564 14.5527L22.7551 15.4219L23.3008 16.5527H24.5564V14.5527ZM27.0521 15.9995V17.9995H29.6168L28.9918 15.5121L27.0521 15.9995ZM24.9534 15.9995V13.9995H22.7723L22.9609 16.1724L24.9534 15.9995ZM16.9749 19.9991C16.9916 19.9994 17.0082 19.9995 17.0248 19.9995V15.9995C17.0268 15.9995 17.0289 15.9995 17.031 15.9995L16.9749 19.9991ZM17.0248 19.9995H22.3013V15.9995H17.0248V19.9995ZM22.3013 19.9995H27.5779V15.9995H22.3013V19.9995ZM27.5779 19.9995C29.5285 19.9995 31.1098 18.4182 31.1098 16.4676H27.1098C27.1098 16.2091 27.3193 15.9995 27.5779 15.9995V19.9995ZM31.1098 16.4676C31.1098 13.2009 28.4616 10.5527 25.1949 10.5527V14.5527C26.2525 14.5527 27.1098 15.41 27.1098 16.4676H31.1098ZM25.1949 10.5527H22.4994V14.5527H25.1949V10.5527ZM21.6815 14.3778C22.1495 14.5876 22.5323 14.9602 22.7551 15.4219L26.3576 13.6835C25.7259 12.3744 24.6475 11.3237 23.3174 10.7276L21.6815 14.3778ZM25.1949 12.5527H24.5564V16.5527H25.1949V12.5527ZM28.9918 15.5121C28.5649 13.8129 27.0296 12.5527 25.1949 12.5527V16.5527C25.1885 16.5527 25.1781 16.5514 25.1667 16.5474C25.156 16.5436 25.1476 16.5386 25.1412 16.5335C25.13 16.5247 25.1182 16.5098 25.1124 16.4868L28.9918 15.5121ZM24.9534 17.9995H27.0521V13.9995H24.9534V17.9995ZM22.9609 16.1724C22.9664 16.2355 22.9692 16.2998 22.9692 16.3653H26.9692C26.9692 16.1842 26.9614 16.0045 26.9459 15.8265L22.9609 16.1724ZM22.9692 16.3653C22.9692 16.1632 23.1331 15.9993 23.3352 15.9993V19.9993C25.3422 19.9993 26.9692 18.3723 26.9692 16.3653H22.9692ZM23.3352 15.9993H17.7069V19.9993H23.3352V15.9993ZM17.7069 15.9993H17.0029V19.9993H17.7069V15.9993Z" fill="currentColor" mask="url(#path-5-inside-3_3777_6346)"/>
<mask id="path-7-inside-4_3777_6346" fill="white">
<path fill-rule="evenodd" clip-rule="evenodd" d="M12.1064 17.9993C12.0992 17.9994 12.0919 17.9995 12.0846 17.9995H6.80804H1.53151C0.685465 17.9995 -0.000388145 17.3136 -0.000388145 16.4676C-0.000388145 14.3055 1.75235 12.5527 3.91446 12.5527H6.60809C5.70902 12.9557 4.97841 13.6673 4.55113 14.5527H3.91446C3.0184 14.5527 2.2661 15.1682 2.05724 15.9995H4.1541C4.14364 16.12 4.1383 16.242 4.1383 16.3653C4.1383 17.2677 4.86987 17.9993 5.77232 17.9993H11.4006H12.1064Z"/>
</mask>
<path fill-rule="evenodd" clip-rule="evenodd" d="M12.1064 17.9993C12.0992 17.9994 12.0919 17.9995 12.0846 17.9995H6.80804H1.53151C0.685465 17.9995 -0.000388145 17.3136 -0.000388145 16.4676C-0.000388145 14.3055 1.75235 12.5527 3.91446 12.5527H6.60809C5.70902 12.9557 4.97841 13.6673 4.55113 14.5527H3.91446C3.0184 14.5527 2.2661 15.1682 2.05724 15.9995H4.1541C4.14364 16.12 4.1383 16.242 4.1383 16.3653C4.1383 17.2677 4.86987 17.9993 5.77232 17.9993H11.4006H12.1064Z" fill="#4C506A"/>
<path d="M12.1064 17.9993V15.9993L12.1345 19.9991L12.1064 17.9993ZM6.60809 12.5527V10.5527L7.42603 14.3778L6.60809 12.5527ZM4.55113 14.5527L6.35237 15.4219L5.80669 16.5527H4.55113V14.5527ZM2.05724 15.9995V17.9995H-0.507426L0.117528 15.5121L2.05724 15.9995ZM4.1541 15.9995V13.9995H6.3352L6.14661 16.1724L4.1541 15.9995ZM12.1345 19.9991C12.1178 19.9994 12.1012 19.9995 12.0846 19.9995V15.9995C12.0826 15.9995 12.0805 15.9995 12.0784 15.9995L12.1345 19.9991ZM12.0846 19.9995H6.80804V15.9995H12.0846V19.9995ZM6.80804 19.9995H1.53151V15.9995H6.80804V19.9995ZM1.53151 19.9995C-0.419105 19.9995 -2.00039 18.4182 -2.00039 16.4676H1.99961C1.99961 16.2091 1.79003 15.9995 1.53151 15.9995V19.9995ZM-2.00039 16.4676C-2.00039 13.2009 0.647778 10.5527 3.91446 10.5527V14.5527C2.85692 14.5527 1.99961 15.41 1.99961 16.4676H-2.00039ZM3.91446 10.5527H6.60809V14.5527H3.91446V10.5527ZM7.42603 14.3778C6.95798 14.5876 6.57518 14.9602 6.35237 15.4219L2.74989 13.6835C3.38164 12.3744 4.46006 11.3237 5.79015 10.7276L7.42603 14.3778ZM3.91446 12.5527H4.55113V16.5527H3.91446V12.5527ZM0.117528 15.5121C0.544459 13.8129 2.07979 12.5527 3.91446 12.5527V16.5527C3.92084 16.5527 3.93124 16.5514 3.9427 16.5474C3.95336 16.5436 3.96182 16.5386 3.9682 16.5335C3.97941 16.5247 3.99118 16.5098 3.99695 16.4868L0.117528 15.5121ZM4.1541 17.9995H2.05724V13.9995H4.1541V17.9995ZM6.14661 16.1724C6.14113 16.2355 6.1383 16.2998 6.1383 16.3653H2.1383C2.1383 16.1842 2.14614 16.0045 2.16159 15.8265L6.14661 16.1724ZM6.1383 16.3653C6.1383 16.1632 5.97444 15.9993 5.77232 15.9993V19.9993C3.7653 19.9993 2.1383 18.3723 2.1383 16.3653H6.1383ZM5.77232 15.9993H11.4006V19.9993H5.77232V15.9993ZM11.4006 15.9993H12.1064V19.9993H11.4006V15.9993Z" fill="currentColor" mask="url(#path-7-inside-4_3777_6346)"/>
<circle cx="14.724" cy="5.65954" r="4.65954" stroke="currentColor" stroke-width="2"/>
<path d="M7.63965 17.1802C7.63965 15.1649 9.27332 13.5312 11.2886 13.5312H18.1609C20.1761 13.5312 21.8098 15.1649 21.8098 17.1802C21.8098 17.6326 21.443 17.9993 20.9906 17.9993H14.7247H8.45879C8.00639 17.9993 7.63965 17.6326 7.63965 17.1802Z" stroke="currentColor" stroke-width="2"/>
<path d="M17.6392 24.1646H11.9682" stroke="currentColor" stroke-width="2" stroke-linecap="round"/>
<path d="M14.8032 27.0006L14.8032 21.3295" stroke="currentColor" stroke-width="2" stroke-linecap="round"/>
<path d="M28.1396 22.5C26.6396 23 25.1396 23.5 22.6396 24" stroke="currentColor" stroke-width="2" stroke-linecap="round"/>
<path d="M1.44043 22.5C2.94043 23 4.44043 23.5 6.94043 24" stroke="currentColor" stroke-width="2" stroke-linecap="round"/>
</svg>
