<svg width="27" height="26" viewBox="0 0 27 26" fill="none" xmlns="http://www.w3.org/2000/svg">
<path d="M14.5691 14.1385L14.8011 14.5678L15.2823 14.6491L17.5555 15.0331C17.7955 15.0737 17.8898 15.3681 17.7181 15.5406L16.1305 17.1355L15.7768 17.4908L15.8499 17.9867L16.1797 20.2257C16.2147 20.4635 15.9698 20.6439 15.753 20.5398L13.632 19.5216L13.1992 19.3138L12.7664 19.5216L10.6454 20.5398C10.4287 20.6439 10.1837 20.4635 10.2188 20.2257L10.5485 17.9867L10.6216 17.4908L10.2679 17.1355L8.68031 15.5406C8.50859 15.3681 8.60296 15.0737 8.84295 15.0331L11.1161 14.6491L11.5973 14.5678L11.8293 14.1385L12.9353 12.0919C13.0487 11.882 13.3498 11.882 13.4631 12.0919L14.3429 11.6165L13.4631 12.0919L14.5691 14.1385Z" stroke="currentColor" stroke-width="2"/>
<path d="M1.5 7.89844H24.5" stroke="currentColor" stroke-width="2" stroke-linecap="round"/>
<path d="M18.9629 4.09259L18.9629 1" stroke="currentColor" stroke-width="2" stroke-miterlimit="10" stroke-linecap="round"/>
<path d="M7.38281 4.09259L7.38281 1" stroke="currentColor" stroke-width="2" stroke-miterlimit="10" stroke-linecap="round"/>
<path d="M13.3828 4.09259L13.3828 1" stroke="currentColor" stroke-width="2" stroke-miterlimit="10" stroke-linecap="round"/>
<path d="M1 6.79687C1 4.58773 2.79086 2.79688 5 2.79688L21.3457 2.79688C23.5548 2.79688 25.3457 4.58774 25.3457 6.79688L25.3457 20.7475C25.3457 22.9566 23.5548 24.7475 21.3457 24.7475L4.99999 24.7475C2.79086 24.7475 0.999999 22.9566 0.999999 20.7475L1 6.79687Z" stroke="currentColor" stroke-width="2"/>
</svg>
