<svg width="26" height="23" viewBox="0 0 26 23" fill="none" xmlns="http://www.w3.org/2000/svg">
<path d="M12.0226 3.21111L12.7778 4.08098L13.5329 3.21111C13.9036 2.78415 14.3384 2.40825 14.8219 2.09285C15.8925 1.39449 17.191 1 18.5278 1C21.9293 1 24.5556 3.6036 24.5556 6.89374C24.5556 8.10202 24.2685 9.26468 23.7576 10.3958L23.7574 10.3961C22.1376 13.9851 18.3775 17.0812 14.8985 19.9205L14.894 19.9242C14.1687 20.5161 13.4582 21.0959 12.7985 21.658C12.7934 21.6624 12.7871 21.6652 12.7778 21.6652C12.7684 21.6652 12.7621 21.6624 12.7571 21.658C12.0973 21.0959 11.3868 20.5161 10.6615 19.9242L10.6571 19.9205C7.17799 17.0812 3.41782 13.985 1.79803 10.3959L1.7979 10.3956C1.28699 9.26455 1 8.10195 1 6.89373C1 3.6036 3.62626 1 7.02778 1C8.36458 1 9.66302 1.39448 10.7336 2.09285C11.2172 2.40825 11.652 2.78415 12.0226 3.21111Z" stroke="currentColor" stroke-width="2"/>
</svg>
