<svg width="25" height="19" viewBox="0 0 25 19" fill="none" xmlns="http://www.w3.org/2000/svg">
<path fill-rule="evenodd" clip-rule="evenodd" d="M14.8016 9.28598C14.359 9.81577 13.8213 10.2634 13.2148 10.6026C14.1292 11.3505 15.2979 11.7991 16.5715 11.7991C19.5018 11.7991 21.8773 9.42364 21.8773 6.49332C21.8773 3.563 19.5018 1.1875 16.5715 1.1875C15.8116 1.1875 15.089 1.34724 14.4355 1.63496C14.9253 2.11925 15.3271 2.69229 15.6149 3.328C15.9177 3.23662 16.2389 3.1875 16.5715 3.1875C18.3972 3.1875 19.8773 4.66757 19.8773 6.49332C19.8773 8.31907 18.3972 9.79914 16.5715 9.79914C15.9204 9.79914 15.3133 9.61094 14.8016 9.28598Z" fill="currentColor"/>
<path fill-rule="evenodd" clip-rule="evenodd" d="M10.6888 18.9993C10.6931 18.9993 10.6973 18.9993 10.7015 18.9993H16.5758H22.4501C23.392 18.9993 24.1556 18.2358 24.1556 17.2939C24.1556 14.8868 22.2043 12.9355 19.7972 12.9355H15.7952C16.7183 13.3492 17.482 14.0551 17.9683 14.9355H19.7972C21 14.9355 21.9924 15.8359 22.1374 16.9993H18.5417C18.544 17.0593 18.5451 17.1196 18.5451 17.1802C18.5451 18.1848 17.7307 18.9993 16.726 18.9993H10.6888Z" fill="currentColor"/>
<circle cx="8.08532" cy="5.65954" r="4.65954" stroke="currentColor" stroke-width="2"/>
<path d="M1 17.1802C1 15.1649 2.63367 13.5312 4.64891 13.5312H11.5212C13.5364 13.5312 15.1701 15.1649 15.1701 17.1802C15.1701 17.6326 14.8034 17.9993 14.351 17.9993H8.08506H1.81914C1.36674 17.9993 1 17.6326 1 17.1802Z" stroke="currentColor" stroke-width="2"/>
</svg>
